<svg width="30" height="32" viewBox="0 0 30 32" fill="none" xmlns="http://www.w3.org/2000/svg">
<path d="M6.83333 1V4.75M23.1667 1V4.75M1 27.25V8.5C1 7.50544 1.36875 6.55161 2.02513 5.84835C2.6815 5.14509 3.57174 4.75 4.5 4.75H25.5C26.4283 4.75 27.3185 5.14509 27.9749 5.84835C28.6313 6.55161 29 7.50544 29 8.5V27.25M1 27.25C1 28.2446 1.36875 29.1984 2.02513 29.9016C2.6815 30.6049 3.57174 31 4.5 31H25.5C26.4283 31 27.3185 30.6049 27.9749 29.9016C28.6313 29.1984 29 28.2446 29 27.25M1 27.25V14.75C1 13.7554 1.36875 12.8016 2.02513 12.0983C2.6815 11.3951 3.57174 11 4.5 11H25.5C26.4283 11 27.3185 11.3951 27.9749 12.0983C28.6313 12.8016 29 13.7554 29 14.75V27.25M15 17.25H15.0124V17.2633H15V17.25ZM15 21H15.0124V21.0133H15V21ZM15 24.75H15.0124V24.7633H15V24.75ZM11.5 21H11.5124V21.0133H11.5V21ZM11.5 24.75H11.5124V24.7633H11.5V24.75ZM8 21H8.01244V21.0133H8V21ZM8 24.75H8.01244V24.7633H8V24.75ZM18.5 17.25H18.5124V17.2633H18.5V17.25ZM18.5 21H18.5124V21.0133H18.5V21ZM18.5 24.75H18.5124V24.7633H18.5V24.75ZM22 17.25H22.0124V17.2633H22V17.25ZM22 21H22.0124V21.0133H22V21Z" stroke="white" stroke-width="1.25" stroke-linecap="round" stroke-linejoin="round"/>
</svg>
