<svg width="34" height="31" viewBox="0 0 34 31" fill="none" xmlns="http://www.w3.org/2000/svg">
<path d="M25.3004 20.7889C26.0681 20.2519 26.9685 19.9484 27.8975 19.9138C28.8265 19.8791 29.7461 20.1145 30.5499 20.5929C31.3537 21.0713 32.0089 21.773 32.4396 22.617C32.8703 23.4609 33.059 24.4125 32.9839 25.3617C31.0149 26.0666 28.9235 26.341 26.8447 26.1669C26.8383 24.2615 26.3027 22.3957 25.3004 20.7906C24.4108 19.3612 23.1837 18.1849 21.7325 17.3703C20.2813 16.5557 18.653 16.1293 16.9983 16.1304C15.3439 16.1296 13.7159 16.5561 12.265 17.3707C10.8142 18.1852 9.58729 19.3615 8.69783 20.7906M26.843 26.1653L26.8447 26.2174C26.8447 26.5956 26.825 26.9688 26.784 27.337C23.806 29.0873 20.4316 30.0056 16.9983 30C13.4372 30 10.0944 29.0316 7.21267 27.337C7.17048 26.948 7.1502 26.5567 7.15195 26.1653M7.15195 26.1653C5.07376 26.3456 2.9835 26.0723 1.01602 25.3633C0.941111 24.4144 1.1299 23.4631 1.56057 22.6195C1.99124 21.7759 2.6462 21.0744 3.44972 20.5961C4.25324 20.1177 5.1725 19.8822 6.10121 19.9166C7.02992 19.951 7.93016 20.254 8.69783 20.7906M7.15195 26.1653C7.15784 24.26 7.69616 22.3959 8.69783 20.7906M21.9215 6.04347C21.9215 7.38109 21.4028 8.66391 20.4795 9.60975C19.5563 10.5556 18.304 11.0869 16.9983 11.0869C15.6926 11.0869 14.4404 10.5556 13.5171 9.60975C12.5938 8.66391 12.0751 7.38109 12.0751 6.04347C12.0751 4.70586 12.5938 3.42303 13.5171 2.4772C14.4404 1.53136 15.6926 1 16.9983 1C18.304 1 19.5563 1.53136 20.4795 2.4772C21.4028 3.42303 21.9215 4.70586 21.9215 6.04347ZM31.7679 11.0869C31.7679 11.5837 31.6724 12.0756 31.4868 12.5345C31.3012 12.9934 31.0293 13.4104 30.6864 13.7617C30.3435 14.1129 29.9365 14.3915 29.4885 14.5816C29.0405 14.7717 28.5604 14.8696 28.0755 14.8696C27.5906 14.8696 27.1104 14.7717 26.6625 14.5816C26.2145 14.3915 25.8074 14.1129 25.4646 13.7617C25.1217 13.4104 24.8497 12.9934 24.6641 12.5345C24.4786 12.0756 24.3831 11.5837 24.3831 11.0869C24.3831 10.0837 24.7721 9.12162 25.4646 8.41224C26.157 7.70287 27.0962 7.30434 28.0755 7.30434C29.0548 7.30434 29.9939 7.70287 30.6864 8.41224C31.3788 9.12162 31.7679 10.0837 31.7679 11.0869ZM9.61354 11.0869C9.61354 11.5837 9.51803 12.0756 9.33247 12.5345C9.14691 12.9934 8.87493 13.4104 8.53206 13.7617C8.1892 14.1129 7.78215 14.3915 7.33417 14.5816C6.88619 14.7717 6.40604 14.8696 5.92115 14.8696C5.43626 14.8696 4.95612 14.7717 4.50814 14.5816C4.06016 14.3915 3.65311 14.1129 3.31024 13.7617C2.96737 13.4104 2.69539 12.9934 2.50983 12.5345C2.32427 12.0756 2.22877 11.5837 2.22877 11.0869C2.22877 10.0837 2.61779 9.12162 3.31024 8.41224C4.0027 7.70287 4.94187 7.30434 5.92115 7.30434C6.90044 7.30434 7.83961 7.70287 8.53206 8.41224C9.22452 9.12162 9.61354 10.0837 9.61354 11.0869Z" stroke="white" stroke-width="1.25" stroke-linecap="round" stroke-linejoin="round"/>
</svg>
