<svg width="34" height="34" viewBox="0 0 34 34" fill="none" xmlns="http://www.w3.org/2000/svg">
<path d="M33 8.38439C33.0001 9.40706 32.7877 10.4186 32.3763 11.3549C31.9649 12.2912 31.3634 13.1318 30.6101 13.8234C29.8567 14.515 28.9678 15.0426 27.9998 15.3727C27.0319 15.7028 26.0058 15.8282 24.9868 15.7409C23.2215 15.5916 21.2723 15.8574 20.1468 17.224L8.41254 31.4711C8.04239 31.9223 7.58186 32.2909 7.0606 32.5534C6.53934 32.8158 5.9689 32.9663 5.386 32.9949C4.8031 33.0236 4.22064 32.93 3.67613 32.72C3.13162 32.51 2.63711 32.1883 2.22444 31.7756C1.81176 31.363 1.49007 30.8685 1.28005 30.324C1.07004 29.7795 0.976365 29.1971 1.00505 28.6142C1.03374 28.0314 1.18416 27.4609 1.44663 26.9397C1.7091 26.4185 2.0778 25.958 2.52901 25.5878L16.7768 13.8542C18.1435 12.7287 18.4093 10.7797 18.26 9.01438C18.1498 7.73171 18.377 6.44252 18.919 5.27476C19.461 4.10701 20.299 3.10127 21.3497 2.35735C22.4005 1.61343 23.6275 1.1572 24.9091 1.03393C26.1906 0.910652 27.4821 1.12462 28.6554 1.6546L23.2805 7.02924C23.4885 7.92845 23.9447 8.75121 24.5974 9.40382C25.25 10.0564 26.0728 10.5127 26.9721 10.7206L32.347 5.34597C32.767 6.27292 33 7.30158 33 8.38439Z" stroke="white" stroke-width="1.25" stroke-linecap="round" stroke-linejoin="round"/>
</svg>
