<svg width="35" height="33" viewBox="0 0 35 33" fill="none" xmlns="http://www.w3.org/2000/svg">
<path d="M31.5556 15.88V29.52C31.5556 30.1777 31.298 30.8085 30.8396 31.2736C30.3812 31.7387 29.7594 32 29.1111 32H5.88889C5.24058 32 4.61883 31.7387 4.16041 31.2736C3.70198 30.8085 3.44444 30.1777 3.44444 29.52V15.88M16.8889 5.34C16.8889 4.48163 16.638 3.64254 16.168 2.92883C15.6979 2.21512 15.0298 1.65885 14.2481 1.33036C13.4665 1.00188 12.6064 0.915934 11.7766 1.08339C10.9468 1.25085 10.1845 1.6642 9.58627 2.27116C8.98801 2.87812 8.58059 3.65143 8.41553 4.49331C8.25047 5.33519 8.33518 6.20782 8.65896 7.00085C8.98273 7.79388 9.53103 8.47169 10.2345 8.94858C10.938 9.42546 11.765 9.68 12.6111 9.68H16.8889M16.8889 5.34V9.68M16.8889 5.34C16.8889 4.48163 17.1398 3.64254 17.6098 2.92883C18.0799 2.21512 18.748 1.65885 19.5296 1.33036C20.3113 1.00188 21.1714 0.915934 22.0012 1.08339C22.831 1.25085 23.5933 1.6642 24.1915 2.27116C24.7898 2.87812 25.1972 3.65143 25.3622 4.49331C25.5273 5.33519 25.4426 6.20782 25.1188 7.00085C24.795 7.79388 24.2467 8.47169 23.5433 8.94858C22.8398 9.42546 22.0127 9.68 21.1667 9.68H16.8889M16.8889 9.68V32M2.83333 15.88H32.1667C33.1787 15.88 34 15.0467 34 14.02V11.54C34 10.5133 33.1787 9.68 32.1667 9.68H2.83333C1.82133 9.68 1 10.5133 1 11.54V14.02C1 15.0467 1.82133 15.88 2.83333 15.88Z" stroke="white" stroke-width="1.25" stroke-linecap="round" stroke-linejoin="round"/>
</svg>
